# xmcd CD database file
#
# Track frame offsets:
#	150
#	34741
#	61659
#	82087
#	106991
#	133379
#	158285
#	193827
#	222351
#	246293
#	277792
#	292713
#	318792
#
# Disc length: 4634 seconds
#
# Revision: 1
# Processed by: cddbd v1.5.2PL0 Copyright (c) Steve Scherf et al.
# Submitted via: CDex 1.70beta2
#
DISCID=af12180d
DTITLE=Various Artist - D.Trance 31 - CD 3
DYEAR=2005
DGENRE=Trance
TTITLE0=Special Turntable Mix
TTITLE1=Special Turntable Mix
TTITLE2=Special Turntable Mix
TTITLE3=Special Turntable Mix
TTITLE4=Special Turntable Mix
TTITLE5=Special Turntable Mix
TTITLE6=Special Turntable Mix
TTITLE7=Special Turntable Mix
TTITLE8=Special Turntable Mix
TTITLE9=Special Turntable Mix
TTITLE10=Special Turntable Mix
TTITLE11=Special Turntable Mix
TTITLE12=Special Turntable Mix
EXTD=YEAR: 2005
EXTT0=
EXTT1=
EXTT2=
EXTT3=
EXTT4=
EXTT5=
EXTT6=
EXTT7=
EXTT8=
EXTT9=
EXTT10=
EXTT11=
EXTT12=
PLAYORDER=
